<svg id="_rrfbpj0" xmlns="http://www.w3.org/2000/svg" viewBox="0 0 27.7 47.76" width="27.7" height="47.76" fill="#FAFAFA54" preserveAspectRatio="none" style="height: 32px; width: 19px; flex-shrink: 0">
  <path d="M10.79,0C1.05,2.95,6.85,12.14,6.85,12.14c0,0,6.89-2.4,3.94-12.14Z" />
  <path d="M9.8,24.05h0c.29-.13,7.09-3.26,4.76-10.95,0,0-7.03.5-5.68,8.07C7.71,18.37,5.16,14.42.02,13.57c-.59,14.94,9.78,10.48,9.78,10.48Z" />
  <path d="M16.04,35.5c.12-.1,6.35-5.02,1.67-12.56,0,0-6.94,2.4-3.96,9.59-2.11-2.18-5.63-4.66-10.42-3.98,3.89,14.37,12.56,7.08,12.7,6.96Z" />
  <path d="M23.75,30.91s-5.76,4.72-.27,10.48c-3.01-1.07-7.68-1.85-11.95,1.17,10.53,11.49,15.14.34,15.14.34h0c.95-2.07,2.72-7.61-2.92-12Z" />
</svg>